<svg xmlns="http://www.w3.org/2000/svg" xmlns:xlink="http://www.w3.org/1999/xlink" viewBox="0 0 500 500"><defs><clipPath id="freepik--clip-path--inject-9"><path d="M220.4,407.47c-1.89,10.16-11.76,15.35-21,14.06-5.12-.72-9.17-1.72-12.32-6.65-2.53-3.95-4.5-10.43-6-21.34-1-7.5.52-16.15,3.17-24.54,6-19,17.73-36.77,17.73-36.77s8.47,11.95,9.12,25.68,4.45,35,4.45,35S222.28,397.32,220.4,407.47Z" style="fill:#92E3A9;stroke:#263238;stroke-linecap:round;stroke-linejoin:round"></path></clipPath><clipPath id="freepik--clip-path-2--inject-9"><path d="M75.8,453S91.92,317.27,165,313.09l32.61,11.72a41.27,41.27,0,0,1,4.41,7.42,48.34,48.34,0,0,1,4.11,29.6,50.7,50.7,0,0,1-4.38,13.1c-9.94,20.27-25.1,49.74-30,78.06" style="fill:#92E3A9;stroke:#263238;stroke-linecap:round;stroke-linejoin:round"></path></clipPath><clipPath id="freepik--clip-path-3--inject-9"><path d="M147.56,350.42c.9,22-8.85,35.08-8.85,35.08s-5.85,15.52-3.9,24-17.93,19.8-26.12,19S95.82,423.86,95,414.9s3.9-16.51,3.9-16.51-1.13-24.72,10.94-46,21.42-22.48,21.42-22.48" style="fill:#92E3A9;stroke:#263238;stroke-linecap:round;stroke-linejoin:round"></path></clipPath></defs><g id="freepik--background-simple--inject-9"><path d="M430,151.78C379.46,38.1,302.52,38.29,266.23,115.68s-131.52-1-202.42,76.3A121.34,121.34,0,0,0,36.9,239.65C13.21,318.41,67.24,399.19,152.05,414.13l122.34,21.55c80.36,14.15,158-36.38,172.19-112.8C456.7,268.62,454.7,207.32,430,151.78Z" style="fill:#92E3A9"></path><path d="M430,151.78C379.46,38.1,302.52,38.29,266.23,115.68s-131.52-1-202.42,76.3A121.34,121.34,0,0,0,36.9,239.65C13.21,318.41,67.24,399.19,152.05,414.13l122.34,21.55c80.36,14.15,158-36.38,172.19-112.8C456.7,268.62,454.7,207.32,430,151.78Z" style="fill:#fff;opacity:0.7000000000000001"></path></g><g id="freepik--Window--inject-9"><rect x="227.65" y="107.68" width="103.81" height="247.32" style="fill:#263238"></rect><rect x="335.22" y="107.68" width="103.81" height="247.32" style="fill:#263238"></rect><polygon points="307.51 278.63 331.46 278.63 331.46 355 227.65 355 227.65 290.2 238.31 290.2 238.31 261.07 252.56 261.07 261 269.51 261 276.31 268.87 268.43 268.87 251.1 276.79 243.19 276.79 206.33 280.01 206.33 280.01 237.09 289.14 246.24 289.14 305.45 296.92 305.45 296.92 289.4 307.51 289.4 307.51 278.63" style="fill:#fff;opacity:0.1"></polygon><polygon points="439.03 284.49 439.03 355 335.23 355 335.23 278.63 345.89 278.63 345.89 300.75 352.11 300.75 365.1 287.75 365.1 273.52 371.05 273.52 371.05 255.98 376.55 255.98 376.55 227.53 379.3 227.53 379.3 255.98 384.34 255.98 384.34 273.74 389.24 278.63 389.24 304.02 397.56 304.02 397.56 294.65 412.24 294.65 412.24 271.26 426.62 271.26 426.62 259.61 431.3 259.61 431.3 284.49 439.03 284.49" style="fill:#fff;opacity:0.1"></polygon><polygon points="434.43 293.47 434.43 260.97 432.02 260.97 432.02 239.41 430.44 239.41 430.44 260.97 429.62 260.97 429.62 293.47 421.85 293.47 421.85 314.37 411.44 314.37 411.44 299.53 404.92 299.53 404.92 284.49 392.9 284.49 392.9 299.53 384.56 299.53 384.56 310.6 365.11 310.6 365.11 306.32 359.58 306.32 359.58 286.72 349.66 286.72 349.66 306.32 335.23 306.32 335.23 320.15 335.23 350.32 335.23 355 439.03 355 439.03 326.94 439.03 320.15 439.03 293.47 434.43 293.47" style="fill:#263238"></polygon><polygon points="434.43 293.47 434.43 260.97 432.02 260.97 432.02 239.41 430.44 239.41 430.44 260.97 429.62 260.97 429.62 293.47 421.85 293.47 421.85 314.37 411.44 314.37 411.44 299.53 404.92 299.53 404.92 284.49 392.9 284.49 392.9 299.53 384.56 299.53 384.56 310.6 365.11 310.6 365.11 306.32 359.58 306.32 359.58 286.72 349.66 286.72 349.66 306.32 335.23 306.32 335.23 320.15 335.23 350.32 335.23 355 439.03 355 439.03 326.94 439.03 320.15 439.03 293.47 434.43 293.47" style="fill:#fff;opacity:0.2"></polygon><polygon points="326.86 293.47 326.86 262.7 324.45 260.97 324.45 239.41 322.87 239.41 322.87 260.97 319.44 262.7 319.44 293.47 311.67 293.47 311.67 271 301.26 271 301.26 294.33 294.74 299.53 294.74 303.57 285.33 303.57 285.33 317.75 276.99 317.75 276.99 297.59 257.53 297.59 257.53 293.3 252 289.83 252 277.18 242.09 277.18 242.09 306.32 227.65 306.32 227.65 320.15 227.65 350.32 227.65 355 331.46 355 331.46 326.94 331.46 320.15 331.46 297.81 326.86 293.47" style="fill:#263238"></polygon><polygon points="326.86 293.47 326.86 262.7 324.45 260.97 324.45 239.41 322.87 239.41 322.87 260.97 319.44 262.7 319.44 293.47 311.67 293.47 311.67 271 301.26 271 301.26 294.33 294.74 299.53 294.74 303.57 285.33 303.57 285.33 317.75 276.99 317.75 276.99 297.59 257.53 297.59 257.53 293.3 252 289.83 252 277.18 242.09 277.18 242.09 306.32 227.65 306.32 227.65 320.15 227.65 350.32 227.65 355 331.46 355 331.46 326.94 331.46 320.15 331.46 297.81 326.86 293.47" style="fill:#fff;opacity:0.2"></polygon><path d="M393.41,151.68a14.38,14.38,0,0,1-20,20.4,16.1,16.1,0,1,0,20-20.4Z" style="fill:#fff"></path><rect x="223.46" y="94.95" width="219.76" height="9.52" style="fill:#fff;stroke:#263238;stroke-linecap:round;stroke-linejoin:round"></rect><rect x="224.07" y="105.94" width="218.54" height="2.34" style="fill:#fff;stroke:#263238;stroke-linecap:round;stroke-linejoin:round"></rect><rect x="224.07" y="109.76" width="218.54" height="2.34" style="fill:#fff;stroke:#263238;stroke-linecap:round;stroke-linejoin:round"></rect><rect x="224.07" y="113.58" width="218.54" height="2.34" style="fill:#fff;stroke:#263238;stroke-linecap:round;stroke-linejoin:round"></rect><rect x="224.07" y="117.4" width="218.54" height="2.34" style="fill:#fff;stroke:#263238;stroke-linecap:round;stroke-linejoin:round"></rect><rect x="224.07" y="121.22" width="218.54" height="2.34" style="fill:#fff;stroke:#263238;stroke-linecap:round;stroke-linejoin:round"></rect><rect x="224.07" y="125.04" width="218.54" height="2.34" style="fill:#fff;stroke:#263238;stroke-linecap:round;stroke-linejoin:round"></rect></g><g id="freepik--Notes--inject-9"><polyline points="95.68 246.68 95.68 194.41 123.29 194.41" style="fill:none;stroke:#263238;stroke-linecap:round;stroke-linejoin:round"></polyline><polyline points="95.68 254.17 95.68 258.8 97.5 258.8" style="fill:none;stroke:#263238;stroke-linecap:round;stroke-linejoin:round"></polyline><polyline points="139.02 252.16 139.02 258.8 101.31 258.8" style="fill:none;stroke:#263238;stroke-linecap:round;stroke-linejoin:round"></polyline><polyline points="127.18 194.41 139.02 194.41 139.02 246.03" style="fill:none;stroke:#263238;stroke-linecap:round;stroke-linejoin:round"></polyline><polyline points="189.49 216.63 189.49 230.54 145.32 230.54 145.32 181.55" style="fill:none;stroke:#263238;stroke-linecap:round;stroke-linejoin:round"></polyline><line x1="189.49" y1="207.13" x2="189.49" y2="212.67" style="fill:none;stroke:#263238;stroke-linecap:round;stroke-linejoin:round"></line><polyline points="145.32 176.68 145.32 169.42 189.49 169.42 189.49 199.98" style="fill:none;stroke:#263238;stroke-linecap:round;stroke-linejoin:round"></polyline><polyline points="107.64 305.24 103.17 325.18 92.24 322.73" style="fill:none;stroke:#263238;stroke-linecap:round;stroke-linejoin:round"></polyline><polyline points="89.72 322.16 83.23 320.71 87.7 300.77 105.59 304.78" style="fill:none;stroke:#263238;stroke-linecap:round;stroke-linejoin:round"></polyline><path d="M97.48,305.44a.89.89,0,1,1-1.73-.39.89.89,0,1,1,1.73.39Z" style="fill:#263238"></path><polyline points="115.81 316 113.15 297.54 127.39 295.49" style="fill:none;stroke:#263238;stroke-linecap:round;stroke-linejoin:round"></polyline><polyline points="133.21 306 134.27 313.34 120.09 315.38" style="fill:none;stroke:#263238;stroke-linecap:round;stroke-linejoin:round"></polyline><line x1="131.61" y1="294.88" x2="132.72" y2="302.56" style="fill:none;stroke:#263238;stroke-linecap:round;stroke-linejoin:round"></line><path d="M123.28,299a.89.89,0,1,1-1-.76A.9.9,0,0,1,123.28,299Z" style="fill:#263238"></path></g><g id="freepik--Clock--inject-9"><path d="M100,103.4a27.29,27.29,0,0,1,14.37-21.92" style="fill:none;stroke:#263238;stroke-linecap:round;stroke-linejoin:round"></path><path d="M120.86,132.13a27.24,27.24,0,0,1-16.63-11.85" style="fill:none;stroke:#263238;stroke-linecap:round;stroke-linejoin:round"></path><path d="M154.46,107.75a27.31,27.31,0,0,1-29.4,25.05" style="fill:none;stroke:#263238;stroke-linecap:round;stroke-linejoin:round"></path><path d="M129.41,78.36a27.32,27.32,0,0,1,24.89,23.51" style="fill:none;stroke:#263238;stroke-linecap:round;stroke-linejoin:round"></path><path d="M139,126.6a24.11,24.11,0,0,1-35.8-22.94" style="fill:none;stroke:#263238;stroke-linecap:round;stroke-linejoin:round"></path><path d="M104.75,96.91a24.09,24.09,0,1,1,40.46,24.71" style="fill:none;stroke:#263238;stroke-linecap:round;stroke-linejoin:round"></path><polyline points="141.85 116.67 127.24 105.58 135.33 96.91" style="fill:none;stroke:#263238;stroke-linecap:round;stroke-linejoin:round"></polyline></g><g id="freepik--Character--inject-9"><path d="M59.28,421.52l-7.87-67.09a15.14,15.14,0,0,1,15-16.91H112.3a20.78,20.78,0,0,1,20.58,17.89l11,78.42" style="fill:none;stroke:#263238;stroke-linecap:round;stroke-linejoin:round"></path><line x1="60.73" y1="433.83" x2="60.11" y2="428.58" style="fill:none;stroke:#263238;stroke-linecap:round;stroke-linejoin:round"></line><path d="M54.7,439.53l-9.32-79.4c-2.21-13.27,5.87-22.61,12.23-22.61" style="fill:none;stroke:#263238;stroke-linecap:round;stroke-linejoin:round"></path><path d="M220.4,407.47c-1.89,10.16-11.76,15.35-21,14.06-5.12-.72-9.17-1.72-12.32-6.65-2.53-3.95-4.5-10.43-6-21.34-1-7.5.52-16.15,3.17-24.54,6-19,17.73-36.77,17.73-36.77s8.47,11.95,9.12,25.68,4.45,35,4.45,35S222.28,397.32,220.4,407.47Z" style="fill:#92E3A9"></path><g style="clip-path:url(#freepik--clip-path--inject-9)"><path d="M199.41,412.38a25.14,25.14,0,0,1-12.32,2.5c-2.53-3.95-4.5-10.43-6-21.34-1-7.5.52-16.15,3.17-24.54a108.4,108.4,0,0,1,21-9.9s2.6,12,0,19.24c0,0,4.05-4.84,3.63-1.32S219,403.28,199.41,412.38Z" style="opacity:0.2"></path></g><path d="M220.4,407.47c-1.89,10.16-11.76,15.35-21,14.06-5.12-.72-9.17-1.72-12.32-6.65-2.53-3.95-4.5-10.43-6-21.34-1-7.5.52-16.15,3.17-24.54,6-19,17.73-36.77,17.73-36.77s8.47,11.95,9.12,25.68,4.45,35,4.45,35S222.28,397.32,220.4,407.47Z" style="fill:none;stroke:#263238;stroke-linecap:round;stroke-linejoin:round"></path><path d="M242.54,389.55s-20,6.36-24,6.63-12.39,7.6-9.65,14.62,14.83,5.46,20.09,2.73,14-11.17,17.55-11.43" style="fill:#fff;stroke:#263238;stroke-linecap:round;stroke-linejoin:round"></path><path d="M240.91,390.5c1.28-1.53,6.45-1.78,10.67-3,6.86-2,8.29-3.05,10.73-2.49,4.13,1,14.63,10.53,14.63,12.22s-4.8,6.59-4.8,6.59-24.82,4.06-29.6-2.57" style="fill:#fff;stroke:#263238;stroke-linecap:round;stroke-linejoin:round"></path><path d="M253,393.94c-.4.68-1,4.12,1.74,4.45s11.42-1,12.93,2.86-12,3.19-16.06,3.64-7.72-2.3-7.72-2.3" style="fill:#fff;stroke:#263238;stroke-linecap:round;stroke-linejoin:round"></path><path d="M255.81,392.93a8.41,8.41,0,0,0,6,2.47" style="fill:#fff;stroke:#263238;stroke-linecap:round;stroke-linejoin:round"></path><path d="M260.37,389.11s.9,4.26,3.51,3.56" style="fill:#fff;stroke:#263238;stroke-linecap:round;stroke-linejoin:round"></path><path d="M75.8,453S91.92,317.27,165,313.09l32.61,11.72a41.27,41.27,0,0,1,4.41,7.42,48.34,48.34,0,0,1,4.11,29.6,50.7,50.7,0,0,1-4.38,13.1c-9.94,20.27-25.1,49.74-30,78.06" style="fill:#92E3A9"></path><g style="clip-path:url(#freepik--clip-path-2--inject-9)"><path d="M191.81,395.32c-3.73,8-7.54,16.55-10.89,25.43l-8.29.78s-58.09,18.14-75.87,11.13c-7-2.77-11.08-9.93-13.42-17.58,6.24-24,17-54.5,34.76-75.88-2,16.78-5.24,58.67,9.47,67.46S177.8,401.45,191.81,395.32Z" style="opacity:0.2"></path><path d="M191.18,347.84l-8-7.6-6.46,3.93c-13.95-7.54-19.34-22.62-21.16-29.75a57.71,57.71,0,0,1,9.44-1.33l29.57,10.62c3.4,3,6.11,5.86,7.37,8.37,0,0,0,0,0,0l.06.11c.09.19.18.37.26.55,0,0,0,0,0,0s0,0,0,0C206.57,343.11,191.18,347.84,191.18,347.84Z" style="opacity:0.2"></path></g><path d="M75.8,453S91.92,317.27,165,313.09l32.61,11.72a41.27,41.27,0,0,1,4.41,7.42,48.34,48.34,0,0,1,4.11,29.6,50.7,50.7,0,0,1-4.38,13.1c-9.94,20.27-25.1,49.74-30,78.06" style="fill:none;stroke:#263238;stroke-linecap:round;stroke-linejoin:round"></path><path d="M165,323.67a68.26,68.26,0,0,0-12.43,2.77" style="fill:none;stroke:#263238;stroke-linecap:round;stroke-linejoin:round"></path><path d="M168.15,314.49s7,27.68,20.47,41.72l2,10.14s-3.53,20.61-.44,27.95-.42,10.42-8.22,15.22-9,22.92-9,22.92l8.18,7.22,7.41-7.41s-.78-17.55,0-20.67,7-3.7,9.56-6.82-.72-12.91-2.8-19.62-2.08-18.79-2.08-18.79L196.81,356s6.58-15,4.92-21.25l-3.9.69s2.56,8.09-2.45,18.8l-4.73-.19s-13.73-19.47-16.45-30.4S168.15,314.49,168.15,314.49Z" style="fill:#263238"></path><path d="M191.74,349.19l-4.29-10.33L180,348.22s-19.44-21.78-16.09-37.1c0,0,9-5,12.33-5.11,8.17-.16,22,14.81,26,23.2s4.84,13.67,4.84,13.67-4.84-8.74-4.84-6.55c0,1.13-2.83,4.56-5.55,7.59" style="fill:#92E3A9;stroke:#263238;stroke-linecap:round;stroke-linejoin:round"></path><path d="M215.56,304.19A71.36,71.36,0,0,1,212,314.54c-1.27,2.87-2.85,5.58-4.6,6.92-.28.21-.57.45-.86.69a66.19,66.19,0,0,0-7.46,7.54c-1,1.13-6.75,17.17-6.75,17.17s-4-12.16-5.06-12.88c-14-9.46-11.3-21.4-11.3-21.4C194.6,306,195.12,296,195.12,296l11.95-17.74Z" style="fill:#fff;stroke:#263238;stroke-linecap:round;stroke-linejoin:round"></path><path d="M176,312.58s.57-4.65,3.3-4.13" style="fill:none;stroke:#263238;stroke-linecap:round;stroke-linejoin:round"></path><path d="M212,314.54c-1.27,2.87-2.85,5.58-4.6,6.92-.28.21-.57.45-.86.69-5.48-5.45-4.38-8.17-4.57-11.65Z" style="fill:#263238"></path><path d="M192.51,302.63c-6.92-24.22,4.89-55.5,29.4-55.34,36.87.23,25.64,34.2,22.44,48.39-2.74,12.2-.2,21.23-13.42,31.51-6.2,4.83-22.5-5-28.72-12.22-1.77-2.08-1.41-5.6-1.41-5.6" style="fill:#fff;stroke:#263238;stroke-linecap:round;stroke-linejoin:round"></path><path d="M242,280s4-.12,5.32,2.31" style="fill:none;stroke:#263238;stroke-linecap:round;stroke-linejoin:round"></path><path d="M230.93,278s-7.61-3.86-12.86.76" style="fill:none;stroke:#263238;stroke-linecap:round;stroke-linejoin:round"></path><path d="M224.68,289c-.26,1.17-1,2-1.65,1.85s-1-1.2-.74-2.37a5,5,0,0,1,2.42-.78A3.19,3.19,0,0,1,224.68,289Z" style="fill:#263238"></path><path d="M225.64,287.64a5.62,5.62,0,0,0-.93,0,5,5,0,0,0-2.42.78" style="fill:none;stroke:#263238;stroke-linecap:round;stroke-linejoin:round"></path><path d="M224.52,291.43a2.89,2.89,0,0,1-2.93,1.95" style="fill:#fff;stroke:#263238;stroke-linecap:round;stroke-linejoin:round"></path><path d="M222.86,285.87a5.08,5.08,0,0,1,2.5,0" style="fill:#fff;stroke:#263238;stroke-linecap:round;stroke-linejoin:round"></path><path d="M224.36,280.77c1.3.24,1.5,2.83,1.5,2.83" style="fill:#fff;stroke:#263238;stroke-linecap:round;stroke-linejoin:round"></path><path d="M240.44,292.43c-.26,1.17-1,2-1.65,1.84s-1-1.2-.73-2.37a4.9,4.9,0,0,1,2.42-.78A3.09,3.09,0,0,1,240.44,292.43Z" style="fill:#263238"></path><path d="M241.4,291.1a9,9,0,0,0-.92,0,4.9,4.9,0,0,0-2.42.78" style="fill:none;stroke:#263238;stroke-linecap:round;stroke-linejoin:round"></path><path d="M240.29,294.89a2.9,2.9,0,0,1-2.93,1.95" style="fill:#fff;stroke:#263238;stroke-linecap:round;stroke-linejoin:round"></path><path d="M238.62,289.34a5.06,5.06,0,0,1,2.51,0" style="fill:#fff;stroke:#263238;stroke-linecap:round;stroke-linejoin:round"></path><path d="M240.13,284.23c1.29.24,1.49,2.83,1.49,2.83" style="fill:#fff;stroke:#263238;stroke-linecap:round;stroke-linejoin:round"></path><path d="M237.2,283.59c-4.58,5.1-2.48,12.76.08,16s-3.83,5.32-3.83,5.32" style="fill:#fff;stroke:#263238;stroke-linecap:round;stroke-linejoin:round"></path><path d="M222.34,314.31c-.63.76.9,1.13,1.61,1.39a14.22,14.22,0,0,0,2.9.45c1.55.22,5.45.3,7.64-2.39l.64-1.25S224.16,312.16,222.34,314.31Z" style="fill:#fff;stroke:#263238;stroke-linecap:round;stroke-linejoin:round"></path><path d="M200,288.09A8,8,0,0,0,204,289.8a69.78,69.78,0,0,1,3.72-6.14c1.75-2.47,11.92-10.68,11.09-18a45.22,45.22,0,0,1,8-.68s-1.65,4.34,5.16,4.27,5.8,3.71,5.8,3.71,2.75-.62,1-3.79c0,0,10.53-.19,9.25,8.47,0,0,2.65,2.34,5.14-1.82a1.85,1.85,0,0,1-2.33-.51c-.94-1.25,4.24-8.48.37-13.33,0,0,4.11-9.55-3.29-13.09s-7.63-8.82-7.63-8.82-2,.77-1.74,3.63c0,0-10.38-4.72-14.74-3.94s-8.46,4.41-8.46,4.41-11.65-3.25-17.29,4.22-9.18,5.3-9.18,5.3.61,2.78,2.92,2.57c0,0-7.12,8.61-5.48,17.81s-2.3,10.44-2.3,10.44a2.75,2.75,0,0,0,3.16.7s-1.46,12.45,4.85,18.17c2.35,2.11,4.06.95,4.9-2.09C197.86,298.06,197.39,290.89,200,288.09Z" style="fill:#757575;stroke:#263238;stroke-linecap:round;stroke-linejoin:round"></path><path d="M202.46,290.33s-1-8.49-5.1-10.06-9.52,8.78-6.27,15.65,6.48,9.68,8.71,6.52-1.23-3.16-1.23-3.16" style="fill:#fff;stroke:#263238;stroke-linecap:round;stroke-linejoin:round"></path><path d="M216.11,260.12s6.46-4.68,12.54-2.54,3.36,7.22,6.48,8.58" style="fill:none;stroke:#263238;stroke-linecap:round;stroke-linejoin:round"></path><path d="M215.67,249.53c5.09-4.26,19.75-5.15,21.69,3.38" style="fill:none;stroke:#263238;stroke-linecap:round;stroke-linejoin:round"></path><path d="M213.19,255.73a5.91,5.91,0,0,1,.55-3.83" style="fill:none;stroke:#263238;stroke-linecap:round;stroke-linejoin:round"></path><path d="M244.69,250.43a14.75,14.75,0,0,0-1.8-2.49" style="fill:none;stroke:#263238;stroke-linecap:round;stroke-linejoin:round"></path><path d="M237.88,259.43c4.06.72,9.2-.9,8-6" style="fill:none;stroke:#263238;stroke-linecap:round;stroke-linejoin:round"></path><path d="M249.32,267.43c.33,2.42-.2,5.92,1.55,7.87" style="fill:none;stroke:#263238;stroke-linecap:round;stroke-linejoin:round"></path><path d="M240.87,263.53c2.29-1.84,6-3,7.46.46" style="fill:none;stroke:#263238;stroke-linecap:round;stroke-linejoin:round"></path><path d="M204.94,275.76c-1.65,1-3.21,2.24-2.94,4.35" style="fill:none;stroke:#263238;stroke-linecap:round;stroke-linejoin:round"></path><path d="M213.07,262.75c4.71,4.56-1.74,9.18-5.46,11.43" style="fill:none;stroke:#263238;stroke-linecap:round;stroke-linejoin:round"></path><path d="M207.83,258.75s-3.9-4.87-9.07,0-.29,15-4.39,18.33" style="fill:none;stroke:#263238;stroke-linecap:round;stroke-linejoin:round"></path><path d="M209.78,255.05s-1.27-6-5.85-6.05-7.65,5.17-7.65,5.17" style="fill:none;stroke:#263238;stroke-linecap:round;stroke-linejoin:round"></path><path d="M116.62,413.68s8.13,30.88,35.93,35.1" style="fill:none;stroke:#263238;stroke-linecap:round;stroke-linejoin:round"></path><path d="M199.41,371.05S180.69,398.38,149,403.82" style="fill:none;stroke:#263238;stroke-linecap:round;stroke-linejoin:round"></path><path d="M147.56,350.42c.9,22-8.85,35.08-8.85,35.08s-5.85,15.52-3.9,24-17.93,19.8-26.12,19S95.82,423.86,95,414.9s3.9-16.51,3.9-16.51-1.13-24.72,10.94-46,21.42-22.48,21.42-22.48" style="fill:#92E3A9"></path><g style="clip-path:url(#freepik--clip-path-3--inject-9)"><path d="M108.69,428.55c-6.7-.64-11-3.37-12.84-9.25-2.68-12,9.06-20.3,21.22-22.07,9.07-1.32,14.73,1.19,17.73,3.32a25.83,25.83,0,0,0,0,9C136.76,418,116.87,429.32,108.69,428.55Z" style="opacity:0.2"></path></g><path d="M147.56,350.42c.9,22-8.85,35.08-8.85,35.08s-5.85,15.52-3.9,24-17.93,19.8-26.12,19S95.82,423.86,95,414.9s3.9-16.51,3.9-16.51-1.13-24.72,10.94-46,21.42-22.48,21.42-22.48" style="fill:none;stroke:#263238;stroke-linecap:round;stroke-linejoin:round"></path><path d="M98.94,398.39s6.63-9.08,16.18-7.79" style="fill:none;stroke:#263238;stroke-linecap:round;stroke-linejoin:round"></path><path d="M111.81,392.93s-6,7.54-4.78,12.9" style="fill:none;stroke:#263238;stroke-linecap:round;stroke-linejoin:round"></path><path d="M95.9,405.83s-.86,15.5,6.55,15.69" style="fill:none;stroke:#263238;stroke-linecap:round;stroke-linejoin:round"></path><path d="M121.29,391.37s10,.47,12.55,5.86" style="fill:none;stroke:#263238;stroke-linecap:round;stroke-linejoin:round"></path><path d="M130.06,393.62s-5.36-.66-8.77,1.78" style="fill:none;stroke:#263238;stroke-linecap:round;stroke-linejoin:round"></path><path d="M119,357.9s5.53,17.83,14.83,23.29" style="fill:none;stroke:#263238;stroke-linecap:round;stroke-linejoin:round"></path><path d="M187.05,387.73c-10.39,3.12-36.64,9.88-48.86,9.88s-18.71-2-25.73,2.63-11.7,16.09-6.76,22.06,29.13,0,39.65-5.19,30.17-10.48,34.64-10.44,8.63-2.85,8.63-2.85" style="fill:#fff;stroke:#263238;stroke-linecap:round;stroke-linejoin:round"></path><path d="M216.46,391.37s7.19,6,10.37,6.24,8.37,1.07,6.4,3.64-13,3.12-20.24-2.86" style="fill:#fff;stroke:#263238;stroke-linecap:round;stroke-linejoin:round"></path><path d="M185.4,389.34a14.87,14.87,0,0,1,1.65-1.61s19.12-5.72,23.28-8.05,7.57,4.41,13.14,8.05,3.11,4.94,6.55,10.14c0,0-3.3,2.6-4.48,0s-8.43-8.76-8.43-8.76,4.95,8.47,6.36,9.92,2.25,3.26-1.16,3.26-4.44-1.82-6.52-4.42-4.68-5.2-4.68-5.2,3.84,4.94,3.09,6.24-1.79,2.86-2.83,3.38-2.84-1-2.84-1a7.61,7.61,0,0,1-3.83,2.34c-2.1.33-5.29-1.49-5.29-1.49s-7.31,6.38-12.36,4.06a8.36,8.36,0,0,1-3.91-4.06" style="fill:#fff;stroke:#263238;stroke-linecap:round;stroke-linejoin:round"></path><path d="M199.41,402.1s.39-3.71,1.69-3.71,3,1.85,3,1.85" style="fill:none;stroke:#263238;stroke-linecap:round;stroke-linejoin:round"></path><path d="M208.53,401.25a2.81,2.81,0,0,0,0-2.86,81.24,81.24,0,0,0-4.7-7.28" style="fill:none;stroke:#263238;stroke-linecap:round;stroke-linejoin:round"></path><path d="M211.11,392.67s-2.11-3.61-2.5-4.14" style="fill:none;stroke:#263238;stroke-linecap:round;stroke-linejoin:round"></path><path d="M217.11,389.11s-2.8-3.36-3.44-3.61" style="fill:none;stroke:#263238;stroke-linecap:round;stroke-linejoin:round"></path><path d="M344.44,409.52H324.61c-4.29,0-88.41-.2-92.69-.58l-29.7-2.65a1.24,1.24,0,0,1-1.12-1.23h0a1.24,1.24,0,0,1,1.23-1.24H347.66a1.25,1.25,0,0,1,1.24,1.24h0A4.46,4.46,0,0,1,344.44,409.52Z" style="fill:#757575;stroke:#263238;stroke-linecap:round;stroke-linejoin:round"></path><path d="M346.68,406.11H261.61a2.31,2.31,0,0,1-2.23-3.3l24.5-74.69a5,5,0,0,1,4.39-3.31h85.07c1.83,0,2.83,1.48,2.23,3.31l-24.5,74.69A5,5,0,0,1,346.68,406.11Z" style="fill:#999;stroke:#263238;stroke-linecap:round;stroke-linejoin:round"></path><path d="M350.23,406.11H265.16a2.31,2.31,0,0,1-2.23-3.3l24.5-74.69a5,5,0,0,1,4.39-3.31h85.07c1.83,0,2.83,1.48,2.23,3.31l-24.5,74.69A5,5,0,0,1,350.23,406.11Z" style="fill:#757575;stroke:#263238;stroke-linecap:round;stroke-linejoin:round"></path><path d="M254,409.52H234.15q-6.45,0-12.87-.58l-29.7-2.65a1.24,1.24,0,0,1-1.13-1.23h0a1.25,1.25,0,0,1,1.24-1.24H257.2a1.25,1.25,0,0,1,1.24,1.24h0A4.46,4.46,0,0,1,254,409.52Z" style="fill:#999;stroke:#263238;stroke-linecap:round;stroke-linejoin:round"></path><path d="M327.18,359c.1-.33.21-.66.33-1a3.37,3.37,0,0,0-.86-.12c-3.39,0-7.55,4.58-9.3,10.22s-.4,10.22,3,10.22c3.19,0,7.06-4,9-9.24C326.56,368.38,325.59,364.14,327.18,359Z" style="fill:#92E3A9;stroke:#263238;stroke-linecap:round;stroke-linejoin:round"></path><polyline points="400.48 452.99 402.21 428.58 391.29 428.58 391.37 452.99" style="fill:#bfbfbf;stroke:#263238;stroke-linecap:round;stroke-linejoin:round"></polyline><polyline points="340.03 452.99 343.23 428.58 354.15 428.58 350.13 452.99" style="fill:#bfbfbf;stroke:#263238;stroke-linecap:round;stroke-linejoin:round"></polyline><polyline points="240.8 452.99 242.54 428.58 231.61 428.58 231.69 452.99" style="fill:#bfbfbf;stroke:#263238;stroke-linecap:round;stroke-linejoin:round"></polyline><polyline points="180.36 452.99 183.55 428.58 194.48 428.58 190.45 452.99" style="fill:#bfbfbf;stroke:#263238;stroke-linecap:round;stroke-linejoin:round"></polyline><rect x="178.22" y="421.72" width="187.85" height="9.25" style="fill:#999;stroke:#263238;stroke-linecap:round;stroke-linejoin:round"></rect><polyline points="409.44 430.97 236.37 430.97 236.37 421.72 409.44 421.72" style="fill:#fff;stroke:#263238;stroke-linecap:round;stroke-linejoin:round"></polyline><rect x="166.78" y="408.12" width="234.9" height="16.68" rx="1.73" style="fill:#bfbfbf;stroke:#263238;stroke-linecap:round;stroke-linejoin:round"></rect><path d="M429.74,408.12h-195a1.7,1.7,0,0,0-1.71,1.71v13.26a1.7,1.7,0,0,0,1.71,1.71H419.88" style="fill:#fff;stroke:#263238;stroke-linecap:round;stroke-linejoin:round"></path></g></svg>